# xmcd CD database file
#
# Track frame offsets:
#	150
#	16769
#	40045
#	54588
#	69444
#	78908
#	94918
#	109711
#	125360
#	142141
#	157064
#	171222
#	186380
#	201777
#	216580
#	234239
#	249243
#	264482
#	278298
#
# Disc length: 3919 seconds
#
# Revision: 1
# Processed by: cddbd v1.5.2PL0 Copyright (c) Steve Scherf et al.
# Submitted via: CDex 1.70beta2
#
DISCID=070f4d13
DTITLE=Jon Katz - A Good Dog [CD5]
DYEAR=2006
DGENRE=Audiobook
TTITLE0=A Good Dog [CD5] - Track 01
TTITLE1=A Good Dog [CD5] - Track 02
TTITLE2=A Good Dog [CD5] - Track 03
TTITLE3=A Good Dog [CD5] - Track 04
TTITLE4=A Good Dog [CD5] - Track 05
TTITLE5=A Good Dog [CD5] - Track 06
TTITLE6=A Good Dog [CD5] - Track 07
TTITLE7=A Good Dog [CD5] - Track 08
TTITLE8=A Good Dog [CD5] - Track 09
TTITLE9=A Good Dog [CD5] - Track 10
TTITLE10=A Good Dog [CD5] - Track 11
TTITLE11=A Good Dog [CD5] - Track 12
TTITLE12=A Good Dog [CD5] - Track 13
TTITLE13=A Good Dog [CD5] - Track 14
TTITLE14=A Good Dog [CD5] - Track 15
TTITLE15=A Good Dog [CD5] - Track 16
TTITLE16=A Good Dog [CD5] - Track 17
TTITLE17=A Good Dog [CD5] - Track 18
TTITLE18=A Good Dog [CD5] - Track 19
EXTD=A Good Dog by Joh Katz 6 CDs\nread by Tom Stechschulte recorded books\n2006 Jungle Country YEAR: 2006
EXTT0=
EXTT1=
EXTT2=
EXTT3=
EXTT4=
EXTT5=
EXTT6=
EXTT7=
EXTT8=
EXTT9=
EXTT10=
EXTT11=
EXTT12=
EXTT13=
EXTT14=
EXTT15=
EXTT16=
EXTT17=
EXTT18=
PLAYORDER=
